# xmcd CD database file
#
# Track frame offsets:
#	150
#	23677
#	38955
#	59955
#	86858
#	112388
#	137580
#	167982
#	179227
#	197104
#
# Disc length: 3084 seconds
#
# Revision: 1
# Processed by: cddbd v1.5.2PL0 Copyright (c) Steve Scherf et al.
# Submitted via: CDex 1.51
#
DISCID=a00c0a0a
DTITLE=Liszt - Paraphrases sur des oeuvres de compositeurs russes  (Istvàn Székely, piano)
DYEAR=1900
DGENRE=Piano
TTITLE0=Mikhail Glinka - Tscherkessenmarsch
TTITLE1=Alexander Aliabiev - Le Rossignol
TTITLE2=Alexander Dargomyjsky - Tarentelle
TTITLE3=Ballade d'Ukraine - Dumka
TTITLE4=Piatr Tchaïkovsky - Polonaise
TTITLE5=Anton Rubinstein - Der Esra
TTITLE6=O! Wenn es doch immer sos bliebe
TTITLE7=Michael Wielhorski - Ljubila ja. Romance
TTITLE8=Abschied - Russian Folk song
TTITLE9=César Cui - Tarentelle
EXTD=
EXTT0=
EXTT1=
EXTT2=
EXTT3=
EXTT4=
EXTT5=
EXTT6=
EXTT7=
EXTT8=
EXTT9=
PLAYORDER=
